PathFileType	4	(X/Y/Z)	T1_P1_Vision_Movement_4_0-662.trc
DataRate	CameraRate	NumFrames	NumMarkers	Units	OrigDataRate	OrigDataStartFrame	OrigNumFrames
60	60	4	27	m	60	331	662
Frame#	Time	RHip			RKnee			RAnkle			RBigToe			RSmallToe			RHeel			LHip			LKnee			LAnkle			LBigToe			LSmallToe			LHeel			Neck			Head			Nose			RShoulder			RElbow			RWrist			RThumb			RIndex			RPinky			LShoulder			LElbow			LWrist			LThumb			LIndex			LPinky		
		X1	Y1	Z1	X2	Y2	Z2	X3	Y3	Z3	X4	Y4	Z4	X5	Y5	Z5	X6	Y6	Z6	X7	Y7	Z7	X8	Y8	Z8	X9	Y9	Z9	X10	Y10	Z10	X11	Y11	Z11	X12	Y12	Z12	X13	Y13	Z13	X14	Y14	Z14	X15	Y15	Z15	X16	Y16	Z16	X17	Y17	Z17	X18	Y18	Z18	X19	Y19	Z19	X20	Y20	Z20	X21	Y21	Z21	X22	Y22	Z22	X23	Y23	Z23	X24	Y24	Z24	X25	Y25	Z25	X26	Y26	Z26	X27	Y27	Z27
332	5.533333333333333	-114.04103320820391	3960.5701069837673	-658.3755182683844	246.50489685538167	4081.0234312659322	-664.0864465923022	599.1076879059387	4263.738800513133	-684.5686121000192	683.4777993373128	4200.341622388677	-651.6910719171003	673.5247436957878	4158.867045124389	-701.174432491824	631.9734896799382	4310.740363289652	-696.3919052205754	-136.73528920030748	4053.286066605784	-485.08561992307466	214.9549904664186	4164.843307671869	-497.07217391712607	554.2732579627838	4335.00144705071	-515.216613674446	636.9628135136585	4214.509248667418	-400.280855939148	605.0334358313678	4245.170799769774	-372.6546710148772	605.771291120229	4374.445768003642	-538.2197645930265	-733.1884221515829	3876.8733293152436	-577.1871071090799	-954.8562991011692	3701.875662313018	-489.7807300304918	-819.2075287517962	3713.1265194983466	-467.2326403699891	-612.6275147738613	3809.2492503070453	-727.4209465822745	-417.8424613867542	3686.1091881809352	-808.2510801781028	-592.5778902660968	3515.7162676327252	-678.1650408737414	-699.8088391435922	3608.2413052703273	-677.7543521468845	-703.4863648155997	3513.847719634125	-659.4695904327809	-669.1977247674627	3473.4131096752894	-647.0884023676067	-658.0455033738325	4025.4130531676215	-471.9683409213578	-403.6595899360242	4081.4580369443984	-405.79406591666543	-158.8489723387457	4123.0116329106	-364.53390584735536	-30.154259047296094	4108.468392404475	-368.68314906932756	4.0041564633563915	4136.040497882695	-350.6173672753476	-10.179295133978812	4157.660586764362	-334.35227233855557
333	5.55	-114.54285096640736	3939.8505102196423	-642.9370328661248	246.53515721395615	4081.166349999982	-664.0931224885128	592.9086426058083	4258.8799508603715	-681.7596994349858	678.1418999786574	4167.209769454057	-643.2681904765019	661.9659166377779	4132.946852975885	-685.1889368656913	631.9664372693537	4310.675948673731	-696.1549120329948	-136.82928278449072	4053.135656535106	-484.8784339848141	214.98209044799827	4165.012639693683	-496.9480201029201	559.3415756443484	4334.740214824432	-514.399819001813	637.2269184237418	4214.934856223848	-400.50738336094906	604.6893538448259	4244.844724868269	-372.49356408850235	609.8732865738746	4408.001888687586	-544.7840325937832	-733.1612668494491	3876.9567592219105	-577.2575488316127	-959.3839268911584	3700.9670122288603	-489.9689883142247	-819.1609864485607	3712.9909176118335	-467.13441671088555	-612.5312273060533	3808.827512345404	-727.2573257195544	-417.777420625732	3686.1331349822876	-808.3735020066609	-593.7336349999914	3517.3660785211882	-679.7770971602083	-700.2619592446553	3609.021890670974	-672.0293328957484	-723.3354761840944	3562.1586222707265	-675.1887763932768	-669.3158823495195	3474.1089538980427	-646.8434588149468	-657.9948516946249	4025.3588002221463	-471.9257920358325	-403.6527202560952	4081.7220236841868	-405.8908518628113	-148.55764761277982	4125.765348137092	-363.58085033067135	-30.06844110359647	4110.143112114796	-368.83915613405395	3.9610153165975603	4137.160887816752	-350.7028576355942	-10.343171249293071	4157.79472264919	-334.27670480811946
334	5.566666666666666	-114.5726992965546	3939.427477517031	-642.7078280636632	240.756773819215	4078.35606388042	-664.4355523380761	592.9234157414307	4258.844934024214	-681.7480386377937	683.0081618075429	4199.563219351484	-651.0462228002199	673.2211868694363	4168.621321152149	-693.1955581468193	632.0904059501986	4310.83752642023	-696.3670811878633	-136.8141809235225	4052.9483980240902	-484.90009879024177	214.843984722698	4164.84414508963	-496.9526753915824	559.3240900283974	4335.094732670131	-514.5049398301136	637.2517388909516	4215.290638639754	-400.78806754691055	604.6352488143195	4245.421975517689	-372.7173188470583	610.6447592775746	4409.062856517991	-545.2706700663945	-728.3399501559359	3849.65949112934	-570.6433224210169	-955.0211997494715	3701.8975439007236	-489.69438155382124	-819.1649392697963	3713.0494625659016	-467.1419445036905	-602.9960049422255	3782.188523644445	-718.7230548976635	-417.7977028576876	3686.1267874779383	-808.35929149752	-593.9073690326375	3517.5642767900554	-679.7392146093922	-700.5194425707131	3609.402111293165	-672.0610608319241	-728.5898060897516	3588.121757754908	-683.0725736454887	-673.5304720643218	3497.346557000514	-653.779950498246	-657.9880911161546	4025.3571329280458	-471.9738289899398	-403.6374201283122	4082.088554347773	-406.13134379244804	-153.28073201942973	4125.225208814595	-363.7695353941805	-25.46855352778605	4110.634658287187	-367.9381151691121	3.8364292323497624	4136.0733966159605	-350.378439687615	-10.141432437262992	4157.122194140634	-334.09612228578396
335	5.583333333333333	-119.91200239926022	3935.594603038343	-640.9912981727604	248.29692244600312	4112.269921518547	-672.0430384935717	592.9914412185537	4258.965332950208	-681.9840952041029	678.2694983497095	4168.00103839409	-643.6398535326252	667.9471138929778	4135.592584794779	-684.3911824642579	631.8619150265914	4311.1477638552415	-696.6717371447612	-136.89838628408083	4052.981779212417	-484.7751256407981	214.86189434839235	4164.709493830644	-496.8476965057593	559.4292731355974	4334.889658127891	-514.5483421825364	637.3587575858008	4215.777657371963	-400.7687013932295	609.1426950045525	4277.5107649760175	-378.6002752260627	610.6266639410372	4408.618313984901	-545.3627356767536	-728.3077140971408	3849.6750600637015	-570.6730086967225	-955.0634549612314	3701.969229215247	-489.73310593524366	-819.2676609621218	3713.171981091429	-467.21370189458213	-608.3254541786283	3780.5001687152935	-719.0332335296843	-417.8444546603276	3686.0926763787393	-808.51377347476	-598.4017320402169	3514.9053005752094	-678.3862549485106	-700.5886339138744	3609.760946623614	-672.3048707141064	-728.7964004073169	3588.7585970155505	-683.35615501661	-673.5383193182131	3497.3531493852724	-653.6762185707914	-658.2079259582573	4024.8854021033158	-466.16330005554465	-403.6274384056998	4081.760105819388	-405.93165308015136	-148.8509915327204	4104.473430489	-349.26805050791336	-30.255443547589977	4109.720331571918	-368.6588619449763	3.90319734041956	4137.0569535851455	-350.56535304819545	-10.087893670952376	4157.407347401222	-334.00410372671104
